<svg xmlns="http://www.w3.org/2000/svg" width="600" height="800" viewBox="0 0 600 800">
<defs>
  <linearGradient id="bg" x1="0" x2="1" y1="0" y2="1">
    <stop offset="0" stop-color="#2b2d42"/>
    <stop offset="0.62" stop-color="#ef476f"/>
    <stop offset="1" stop-color="#111827"/>
  </linearGradient>
</defs>
<rect width="600" height="800" fill="url(#bg)"/>
<polygon points="300.0,0 48.0,800 144.0,800" fill="#ffd166" opacity="0.13"/>
<polygon points="300.0,0 456.0,800 552.0,800" fill="#06d6a0" opacity="0.13"/>
<circle cx="422" cy="658" r="28" fill="#ef476f" opacity="0.18"/>
<circle cx="573" cy="741" r="41" fill="#ffd166" opacity="0.18"/>
<circle cx="124" cy="24" r="54" fill="#06d6a0" opacity="0.18"/>
<circle cx="275" cy="107" r="67" fill="#ef476f" opacity="0.18"/>
<circle cx="426" cy="190" r="80" fill="#ffd166" opacity="0.18"/>
<circle cx="577" cy="273" r="93" fill="#06d6a0" opacity="0.18"/>
<rect x="0.0" y="702" width="37.5" height="98" fill="#ffffff" opacity="0.12"/>
<rect x="50.0" y="766" width="37.5" height="34" fill="#ffffff" opacity="0.12"/>
<rect x="100.0" y="750" width="37.5" height="50" fill="#ffffff" opacity="0.12"/>
<rect x="150.0" y="734" width="37.5" height="66" fill="#ffffff" opacity="0.12"/>
<rect x="200.0" y="718" width="37.5" height="82" fill="#ffffff" opacity="0.12"/>
<rect x="250.0" y="702" width="37.5" height="98" fill="#ffffff" opacity="0.12"/>
<rect x="300.0" y="766" width="37.5" height="34" fill="#ffffff" opacity="0.12"/>
<rect x="350.0" y="750" width="37.5" height="50" fill="#ffffff" opacity="0.12"/>
<rect x="400.0" y="734" width="37.5" height="66" fill="#ffffff" opacity="0.12"/>
<rect x="450.0" y="718" width="37.5" height="82" fill="#ffffff" opacity="0.12"/>
<rect x="500.0" y="702" width="37.5" height="98" fill="#ffffff" opacity="0.12"/>
<rect x="550.0" y="766" width="37.5" height="34" fill="#ffffff" opacity="0.12"/>
<rect x="44" y="54" width="512" height="692" rx="28" fill="#000" opacity="0.17"/>
<circle cx="300" cy="284" r="128" fill="#ffd166" opacity="0.18"/>
<path d="M118 515 C205 458 309 455 388 515 C440 554 477 612 506 681 L94 681 C118 616 82 560 118 515Z" fill="#ffffff" opacity="0.16"/>
<path d="M98 184 L502 126 L470 174 L132 226Z" fill="#ffffff" opacity="0.20"/>
<text x="76" y="126" text-anchor="start" font-family="Microsoft YaHei, PingFang SC, Arial" font-size="24" font-weight="800" fill="#ffd166">TicketMarket</text>
<text x="76" y="610" text-anchor="start" font-family="Microsoft YaHei, PingFang SC, Arial" font-size="40" font-weight="700" fill="#ffffff">仲夏室内乐精选</text>
<text x="78" y="662" text-anchor="start" font-family="Microsoft YaHei, PingFang SC, Arial" font-size="22" font-weight="500" fill="#f4f6fb">音乐会 · 南京 · 08-09</text>
<rect x="76" y="696" width="186" height="38" rx="19" fill="#ffd166" opacity="0.94"/>
<text x="169" y="722" text-anchor="middle" font-family="Microsoft YaHei, PingFang SC, Arial" font-size="18" font-weight="800" fill="#2b2d42">本地原创素材</text>
</svg>
