<svg xmlns="http://www.w3.org/2000/svg" width="1440" height="420" viewBox="0 0 1440 420">
<defs>
  <linearGradient id="bg" x1="0" x2="1" y1="0" y2="1">
    <stop offset="0" stop-color="#202a44"/>
    <stop offset="0.55" stop-color="#ff8a00"/>
    <stop offset="1" stop-color="#f7f7ff"/>
  </linearGradient>
</defs>
<rect width="1440" height="420" fill="url(#bg)"/>
<polygon points="720.0,0 115.2,420 345.59999999999997,420" fill="#a5ffd6" opacity="0.13"/>
<polygon points="720.0,0 1094.4,420 1324.8,420" fill="#f7f7ff" opacity="0.13"/>
<circle cx="365" cy="235" r="28" fill="#ff8a00" opacity="0.18"/>
<circle cx="516" cy="318" r="41" fill="#a5ffd6" opacity="0.18"/>
<circle cx="667" cy="401" r="54" fill="#f7f7ff" opacity="0.18"/>
<circle cx="818" cy="64" r="67" fill="#ff8a00" opacity="0.18"/>
<circle cx="969" cy="147" r="80" fill="#a5ffd6" opacity="0.18"/>
<circle cx="1120" cy="230" r="93" fill="#f7f7ff" opacity="0.18"/>
<rect x="0.0" y="386" width="90.0" height="34" fill="#ffffff" opacity="0.12"/>
<rect x="120.0" y="370" width="90.0" height="50" fill="#ffffff" opacity="0.12"/>
<rect x="240.0" y="354" width="90.0" height="66" fill="#ffffff" opacity="0.12"/>
<rect x="360.0" y="338" width="90.0" height="82" fill="#ffffff" opacity="0.12"/>
<rect x="480.0" y="322" width="90.0" height="98" fill="#ffffff" opacity="0.12"/>
<rect x="600.0" y="386" width="90.0" height="34" fill="#ffffff" opacity="0.12"/>
<rect x="720.0" y="370" width="90.0" height="50" fill="#ffffff" opacity="0.12"/>
<rect x="840.0" y="354" width="90.0" height="66" fill="#ffffff" opacity="0.12"/>
<rect x="960.0" y="338" width="90.0" height="82" fill="#ffffff" opacity="0.12"/>
<rect x="1080.0" y="322" width="90.0" height="98" fill="#ffffff" opacity="0.12"/>
<rect x="1200.0" y="386" width="90.0" height="34" fill="#ffffff" opacity="0.12"/>
<rect x="1320.0" y="370" width="90.0" height="50" fill="#ffffff" opacity="0.12"/>
<rect x="86" y="72" width="620" height="230" rx="20" fill="#000000" opacity="0.18"/>
<text x="118" y="148" text-anchor="start" font-family="Microsoft YaHei, PingFang SC, Arial" font-size="54" font-weight="700" fill="#ffffff">亲子幻想日</text>
<text x="120" y="204" text-anchor="start" font-family="Microsoft YaHei, PingFang SC, Arial" font-size="24" font-weight="500" fill="#f7f0f2">全家共享的轻松观演</text>
<text x="120" y="260" text-anchor="start" font-family="Microsoft YaHei, PingFang SC, Arial" font-size="26" font-weight="700" fill="#a5ffd6">TicketMarket · 南京 · 08-30</text>
<path d="M1030 112 C1110 70 1248 78 1320 146 C1256 142 1198 170 1156 216 C1110 178 1062 150 1030 112Z" fill="#ffffff" opacity="0.20"/>
<circle cx="1130" cy="260" r="62" fill="#a5ffd6" opacity="0.86"/>
<circle cx="1260" cy="238" r="92" fill="#ffffff" opacity="0.16"/>
</svg>
