<svg xmlns="http://www.w3.org/2000/svg" width="1200" height="520" viewBox="0 0 1200 520">
<defs>
  <linearGradient id="bg" x1="0" x2="1">
    <stop offset="0" stop-color="#202a44"/>
    <stop offset="1" stop-color="#ff8a00"/>
  </linearGradient>
</defs>
<rect width="1200" height="520" fill="url(#bg)"/>
<polygon points="600.0,0 96.0,520 288.0,520" fill="#a5ffd6" opacity="0.13"/>
<polygon points="600.0,0 912.0,520 1104.0,520" fill="#f7f7ff" opacity="0.13"/>
<circle cx="1136" cy="464" r="28" fill="#ff8a00" opacity="0.18"/>
<circle cx="87" cy="27" r="41" fill="#a5ffd6" opacity="0.18"/>
<circle cx="238" cy="110" r="54" fill="#f7f7ff" opacity="0.18"/>
<circle cx="389" cy="193" r="67" fill="#ff8a00" opacity="0.18"/>
<circle cx="540" cy="276" r="80" fill="#a5ffd6" opacity="0.18"/>
<circle cx="691" cy="359" r="93" fill="#f7f7ff" opacity="0.18"/>
<rect x="0.0" y="454" width="75.0" height="66" fill="#ffffff" opacity="0.12"/>
<rect x="100.0" y="438" width="75.0" height="82" fill="#ffffff" opacity="0.12"/>
<rect x="200.0" y="422" width="75.0" height="98" fill="#ffffff" opacity="0.12"/>
<rect x="300.0" y="486" width="75.0" height="34" fill="#ffffff" opacity="0.12"/>
<rect x="400.0" y="470" width="75.0" height="50" fill="#ffffff" opacity="0.12"/>
<rect x="500.0" y="454" width="75.0" height="66" fill="#ffffff" opacity="0.12"/>
<rect x="600.0" y="438" width="75.0" height="82" fill="#ffffff" opacity="0.12"/>
<rect x="700.0" y="422" width="75.0" height="98" fill="#ffffff" opacity="0.12"/>
<rect x="800.0" y="486" width="75.0" height="34" fill="#ffffff" opacity="0.12"/>
<rect x="900.0" y="470" width="75.0" height="50" fill="#ffffff" opacity="0.12"/>
<rect x="1000.0" y="454" width="75.0" height="66" fill="#ffffff" opacity="0.12"/>
<rect x="1100.0" y="438" width="75.0" height="82" fill="#ffffff" opacity="0.12"/>
<rect x="70" y="80" width="640" height="280" rx="24" fill="#000" opacity="0.18"/>
<text x="108" y="168" text-anchor="start" font-family="Microsoft YaHei, PingFang SC, Arial" font-size="56" font-weight="700" fill="#ffffff">舞台声浪</text>
<text x="110" y="230" text-anchor="start" font-family="Microsoft YaHei, PingFang SC, Arial" font-size="25" font-weight="500" fill="#f7f0f2">灯光、座席与入场动线完整呈现</text>
<text x="110" y="304" text-anchor="start" font-family="Microsoft YaHei, PingFang SC, Arial" font-size="24" font-weight="800" fill="#a5ffd6">TicketMarket 原创视觉资产</text>
<rect x="790" y="118" width="280" height="260" rx="30" fill="#fff" opacity="0.15"/>
<circle cx="930" cy="248" r="92" fill="#a5ffd6" opacity="0.52"/>
<path d="M820 340 C900 300 980 300 1050 342" stroke="#fff" stroke-width="12" opacity="0.35" fill="none"/>
</svg>
